<?xml version="1.0" encoding="UTF-8"?>
<!DOCTYPE svg PUBLIC "-//W3C//DTD SVG 1.1//EN" "http://www.w3.org/Graphics/SVG/1.1/DTD/svg11.dtd">
<svg xmlns="http://www.w3.org/2000/svg" version="1.1" width="27px" height="32px" style="shape-rendering:geometricPrecision; text-rendering:geometricPrecision; image-rendering:optimizeQuality; fill-rule:evenodd; clip-rule:evenodd" xmlns:xlink="http://www.w3.org/1999/xlink">
<g><path style="opacity:0.956" fill="#00a4e4" d="M 0.5,-0.5 C 9.16667,-0.5 17.8333,-0.5 26.5,-0.5C 26.5,1.16667 26.5,2.83333 26.5,4.5C 24.5,4.5 22.5,4.5 20.5,4.5C 20.5,13.5 20.5,22.5 20.5,31.5C 17.5,31.5 14.5,31.5 11.5,31.5C 11.5,22.5 11.5,13.5 11.5,4.5C 7.83333,4.5 4.16667,4.5 0.5,4.5C 0.5,2.83333 0.5,1.16667 0.5,-0.5 Z"/></g>
<g><path style="opacity:0.899" fill="#00a4e4" d="M 8.5,31.5 C 5.83333,31.5 3.16667,31.5 0.5,31.5C 0.5,23.1667 0.5,14.8333 0.5,6.5C 3.16667,6.5 5.83333,6.5 8.5,6.5C 8.5,14.8333 8.5,23.1667 8.5,31.5 Z"/></g>
</svg>
