<?xml version="1.0" standalone="no"?>
<!DOCTYPE svg PUBLIC "-//W3C//DTD SVG 20010904//EN"
 "http://www.w3.org/TR/2001/REC-SVG-20010904/DTD/svg10.dtd">
<svg version="1.0" xmlns="http://www.w3.org/2000/svg"
 width="138.000000pt" height="52.000000pt" viewBox="0 0 138.000000 52.000000"
 preserveAspectRatio="xMidYMid meet">

<g transform="translate(0.000000,52.000000) scale(0.100000,-0.100000)"
fill="#000000" stroke="none">
<path d="M65 359 c-10 -15 1 -23 20 -15 9 3 13 10 10 16 -8 13 -22 13 -30 -1z"/>
<path d="M70 225 c0 -43 4 -75 10 -75 6 0 10 32 10 75 0 43 -4 75 -10 75 -6 0
-10 -32 -10 -75z"/>
<path d="M140 224 c0 -59 3 -74 15 -74 12 0 15 13 15 60 0 47 4 61 18 69 33
18 47 -3 47 -69 0 -41 4 -60 13 -60 8 0 12 19 12 60 0 48 4 61 19 70 32 16 51
-12 51 -76 0 -30 5 -54 10 -54 13 0 13 106 0 131 -12 21 -64 27 -75 9 -5 -8
-11 -8 -19 -1 -7 6 -33 10 -59 9 l-47 -1 0 -73z"/>
<path d="M400 180 c0 -73 4 -120 10 -120 6 0 10 24 10 54 l0 54 29 -14 c34
-17 74 -6 90 25 17 31 13 79 -9 101 -22 22 -79 27 -98 8 -9 -9 -12 -9 -12 0 0
7 -4 12 -10 12 -6 0 -10 -47 -10 -120z m112 83 c36 -32 13 -95 -35 -95 -51 0
-73 44 -47 93 13 24 57 25 82 2z"/>
<path d="M590 223 c0 -42 4 -73 10 -73 6 0 10 22 10 49 0 62 7 81 30 81 11 0
22 4 25 10 4 6 -10 9 -34 8 l-41 -1 0 -74z"/>
<path d="M707 288 c-46 -36 -34 -121 20 -135 39 -10 64 -5 91 20 48 44 11 127
-57 127 -20 0 -45 -6 -54 -12z m100 -34 c15 -24 15 -29 2 -53 -29 -51 -109
-33 -109 24 0 56 76 76 107 29z"/>
<path d="M887 223 c19 -43 37 -80 38 -81 3 -4 75 146 75 154 0 2 -5 4 -11 4
-5 0 -22 -26 -36 -57 l-25 -58 -25 58 c-14 31 -31 57 -39 57 -8 0 -1 -25 23
-77z"/>
</g>
</svg>
